<?xml version="1.0" encoding="UTF-8" standalone="no"?>
<!DOCTYPE svg PUBLIC "-//W3C//DTD SVG 1.1//EN" "http://www.w3.org/Graphics/SVG/1.1/DTD/svg11.dtd">
<svg width="100%" height="100%" viewBox="0 0 100 23" version="1.1" xmlns="http://www.w3.org/2000/svg" xmlns:xlink="http://www.w3.org/1999/xlink" xml:space="preserve" xmlns:serif="http://www.serif.com/" style="fill-rule:evenodd;clip-rule:evenodd;stroke-linejoin:round;stroke-miterlimit:1.41421;">
    <g id="Logo" transform="matrix(1,0,0,1,0,0.314362)">
        <g transform="matrix(0.197278,0,0,0.197278,-8.81831,-5.78023)">
            <rect x="222.3" y="58.5" width="9.3" height="45.8" style="fill:white;fill-rule:nonzero;"/>
            <path d="M243,58.5L252.2,58.5L260.9,78.4C262,81.3 263.1,84.3 264.2,87.2L264.4,87C263.6,81.2 263.1,73.4 263.1,69.1L263.1,58.5L272.3,58.5L272.3,104.3L263,104.3L255.3,86.6L251.2,75.4L251,75.6C251.7,81.4 252.2,89.9 252.2,95L252.2,104.3L243,104.3L243,58.5Z" style="fill:white;fill-rule:nonzero;"/>
            <path d="M280.7,91.1L290.3,91.1C290.3,94.8 292.1,96.3 295.1,96.3C298.2,96.3 299.7,94.5 299.7,92.2C299.7,84.6 281.8,83.7 281.8,69.7C281.8,62.7 286.7,57.6 295.2,57.6C303.7,57.6 308.8,62.6 308.8,71.1L299.2,71.1C299.2,68.1 297.8,66.6 295.1,66.6C292.7,66.6 291.2,67.9 291.2,70C291.2,77.2 309.4,77.7 309.4,92.3C309.4,99.8 304.1,105.3 295,105.3C286.2,105.3 280.7,100.3 280.7,91.1Z" style="fill:white;fill-rule:nonzero;"/>
            <path d="M317.4,89.8L317.4,58.5L326.9,58.5L326.9,89.7C326.9,93.8 328.5,96.1 331.8,96.1C335.1,96.1 336.7,93.9 336.7,89.7L336.7,58.5L346.2,58.5L346.2,89.7C346.2,99.3 340.8,105.1 331.8,105.1C322.8,105.2 317.4,99.4 317.4,89.8Z" style="fill:white;fill-rule:nonzero;"/>
            <path d="M369.4,89L366.1,89L366.1,104.4L356.8,104.4L356.8,58.5L370.1,58.5C379.2,58.5 384.6,64.1 384.6,73.8C384.6,80 382.3,84.6 378.2,87L386.8,104.3L376.7,104.3L369.4,89ZM366.1,80.1L370,80.1C373.3,80.1 375,77.9 375,73.7C375,69.5 373.2,67.3 370,67.3L366.1,67.3L366.1,80.1Z" style="fill:white;fill-rule:nonzero;"/>
            <path d="M394.5,58.5L403.7,58.5L412.4,78.4C413.5,81.3 414.6,84.3 415.7,87.2L415.9,87C415.1,81.2 414.6,73.4 414.6,69.1L414.6,58.5L423.8,58.5L423.8,104.3L414.6,104.3L406.9,86.6L402.8,75.4L402.6,75.6C403.3,81.4 403.8,89.9 403.8,95L403.8,104.3L394.6,104.3L394.6,58.5L394.5,58.5Z" style="fill:white;fill-rule:nonzero;"/>
            <rect x="435.1" y="58.5" width="9.3" height="45.8" style="fill:white;fill-rule:nonzero;"/>
            <path d="M455.8,58.5L465,58.5L473.7,78.4C474.8,81.3 475.9,84.3 477,87.2L477.2,87C476.4,81.2 475.9,73.4 475.9,69.1L475.9,58.5L485.1,58.5L485.1,104.3L475.9,104.3L468.2,86.6L464,75.5L463.8,75.7C464.5,81.5 465,90 465,95.1L465,104.4L455.8,104.4L455.8,58.5Z" style="fill:white;fill-rule:nonzero;"/>
            <path d="M493.2,105.9C498.2,105.9 501.1,104.1 501.1,97.4L501.1,58.5L510.4,58.5L510.4,97.4C510.4,107.7 504.6,114.4 493.2,114.4L493.2,105.9Z" style="fill:white;fill-rule:nonzero;"/>
            <path d="M540.4,96.8L530.7,96.8L529.2,104.4L519.6,104.4L530.6,58.6L540.6,58.6L551.6,104.4L542,104.4L540.4,96.8ZM538.6,88L537.6,82.8C537,79.5 536.2,74 535.8,70.2L535.5,70.2C535,73.9 534.3,79.5 533.7,82.8L532.7,88L538.6,88Z" style="fill:white;fill-rule:nonzero;"/>
        </g>
        <g id="Group-3" transform="matrix(0.197278,0,0,0.197278,-9.8047,-7.75301)">
            <path id="Rectangle-4" d="M52,45.6L84.5,64.8C85.1,65.2 85.4,65.9 85.1,66.6L82.7,72.8C82.4,73.5 81.8,73.8 81.1,73.7L51,69.3C50.3,69.2 49.7,68.6 49.7,67.8L49.7,46.9C49.7,46.1 50.4,45.4 51.2,45.4C51.5,45.4 51.8,45.5 52,45.6Z" style="fill:white;fill-rule:nonzero;"/>
            <path id="Rectangle-4-Copy" d="M61.4,82.8L78.7,70.7C79.1,70.4 79.7,70.3 80.1,70.5L82,71.3C82.8,71.6 83.1,72.5 82.8,73.3C82.8,73.4 82.7,73.5 82.7,73.6L67.5,96.4C67,97.1 66.1,97.3 65.4,96.8C65.1,96.6 64.9,96.4 64.8,96L60.8,84.4C60.7,83.9 60.9,83.2 61.4,82.8Z" style="fill:white;fill-rule:nonzero;"/>
            <path id="Mask" d="M186,93.3C181.3,103.3 172.8,115.6 160.5,130.4C167.5,126.8 176,120.1 186,110.2L186,120.2C186,123.2 184.4,125.9 181.9,127.4L140,151.6C138.7,152.4 137.2,152.7 135.7,152.7C135.3,152.7 148.2,129.8 148.3,99.7C148.3,86.1 128.1,70.3 124.8,58.4C121.8,47.2 135.7,39.3 135.9,39.3C137.3,39.3 138.7,39.7 139.9,40.4L181.8,64.6C184.4,66.1 185.9,68.8 185.9,71.8L186,93.3ZM175.7,83.1L156.1,94.3C155.7,94.6 155.4,95 155.4,95.5C155.4,96 155.7,96.4 156.2,96.6C161.8,98.5 167,98.6 171.7,97.1C173,96.2 174.4,91.5 175.7,83.1Z" style="fill:white;fill-rule:nonzero;"/>
            <path id="Path-4-Copy-5" d="M107.2,83.2L132.9,94.5C133.4,94.7 133.7,95.2 133.7,95.7C133.7,96.2 133.4,96.6 132.9,96.7C123.3,98.7 116.1,98.9 111.3,97.3C109.8,96.3 108.5,91.6 107.2,83.2Z" style="fill:white;fill-rule:nonzero;"/>
        </g>
    </g>
</svg>
